<svg width="305" height="89" viewBox="0 0 305 89" fill="none" xmlns="http://www.w3.org/2000/svg">
<path d="M77.75 36.63L74.6 46.86C74.58 46.92 74.59 46.98 74.63 47.04C74.67 47.08 74.72 47.1 74.78 47.1H80.78C80.84 47.1 80.89 47.08 80.93 47.04C80.97 46.98 80.98 46.92 80.96 46.86L77.81 36.63C77.81 36.61 77.8 36.6 77.78 36.6C77.76 36.6 77.75 36.61 77.75 36.63ZM70.25 55.5C69.83 55.5 69.49 55.33 69.23 54.99C68.99 54.65 68.94 54.28 69.08 53.88L75.5 35.22C75.66 34.74 75.95 34.35 76.37 34.05C76.79 33.75 77.25 33.6 77.75 33.6H77.93C78.45 33.6 78.91 33.75 79.31 34.05C79.73 34.35 80.02 34.74 80.18 35.22L86.6 53.88C86.74 54.28 86.68 54.65 86.42 54.99C86.18 55.33 85.85 55.5 85.43 55.5H85.31C84.81 55.5 84.35 55.35 83.93 55.05C83.53 54.75 83.25 54.36 83.09 53.88L81.89 49.92C81.87 49.76 81.76 49.68 81.56 49.68H74C73.82 49.68 73.71 49.76 73.67 49.92L72.47 53.88C72.33 54.36 72.05 54.75 71.63 55.05C71.23 55.35 70.77 55.5 70.25 55.5ZM93.248 55.02C92.928 55.34 92.548 55.5 92.108 55.5C91.668 55.5 91.278 55.34 90.938 55.02C90.618 54.7 90.458 54.31 90.458 53.85V34.65C90.458 34.19 90.618 33.8 90.938 33.48C91.278 33.16 91.668 33 92.108 33C92.548 33 92.928 33.16 93.248 33.48C93.588 33.8 93.758 34.19 93.758 34.65V53.85C93.758 54.31 93.588 54.7 93.248 55.02ZM102.435 45.45V49.95C102.435 50.85 102.815 51.65 103.575 52.35C104.355 53.05 105.275 53.4 106.335 53.4C107.555 53.4 108.505 52.93 109.185 51.99C109.885 51.05 110.235 49.62 110.235 47.7C110.235 43.9 108.935 42 106.335 42C105.275 42 104.355 42.35 103.575 43.05C102.815 43.75 102.435 44.55 102.435 45.45ZM101.805 55.08C101.505 55.36 101.155 55.5 100.755 55.5C100.355 55.5 100.005 55.36 99.7046 55.08C99.4246 54.78 99.2846 54.43 99.2846 54.03V34.56C99.2846 34.12 99.4346 33.75 99.7346 33.45C100.055 33.15 100.435 33 100.875 33C101.315 33 101.685 33.15 101.985 33.45C102.285 33.75 102.435 34.12 102.435 34.56V41.52C102.435 41.54 102.445 41.55 102.465 41.55C102.485 41.55 102.505 41.54 102.525 41.52C103.785 40.24 105.305 39.6 107.085 39.6C108.985 39.6 110.505 40.31 111.645 41.73C112.805 43.15 113.385 45.14 113.385 47.7C113.385 50.18 112.785 52.15 111.585 53.61C110.405 55.07 108.905 55.8 107.085 55.8C106.125 55.8 105.285 55.64 104.565 55.32C103.845 54.98 103.115 54.4 102.375 53.58C102.355 53.56 102.335 53.55 102.315 53.55C102.295 53.55 102.285 53.56 102.285 53.58V54.03C102.265 54.43 102.105 54.78 101.805 55.08ZM117.851 34.65C117.851 34.19 118.011 33.8 118.331 33.48C118.671 33.16 119.061 33 119.501 33C119.941 33 120.321 33.16 120.641 33.48C120.981 33.8 121.151 34.19 121.151 34.65C121.151 35.11 120.981 35.5 120.641 35.82C120.321 36.14 119.941 36.3 119.501 36.3C119.061 36.3 118.671 36.14 118.331 35.82C118.011 35.5 117.851 35.11 117.851 34.65ZM120.641 55.02C120.321 55.34 119.941 55.5 119.501 55.5C119.061 55.5 118.671 55.34 118.331 55.02C118.011 54.7 117.851 54.31 117.851 53.85V41.55C117.851 41.09 118.011 40.7 118.331 40.38C118.671 40.06 119.061 39.9 119.501 39.9C119.941 39.9 120.321 40.06 120.641 40.38C120.981 40.7 121.151 41.09 121.151 41.55V53.85C121.151 54.31 120.981 54.7 120.641 55.02ZM131.627 48.9C129.587 48.4 128.147 47.77 127.307 47.01C126.487 46.23 126.077 45.26 126.077 44.1C126.077 42.7 126.577 41.6 127.577 40.8C128.597 40 130.097 39.6 132.077 39.6C133.357 39.6 134.647 39.74 135.947 40.02C136.307 40.1 136.597 40.3 136.817 40.62C137.057 40.92 137.177 41.26 137.177 41.64C137.177 41.96 137.047 42.21 136.787 42.39C136.527 42.57 136.247 42.61 135.947 42.51C134.687 42.17 133.497 42 132.377 42C130.277 42 129.227 42.6 129.227 43.8C129.227 44.4 129.427 44.89 129.827 45.27C130.227 45.65 130.927 45.96 131.927 46.2C134.227 46.74 135.777 47.39 136.577 48.15C137.377 48.89 137.777 49.99 137.777 51.45C137.777 52.81 137.247 53.88 136.187 54.66C135.147 55.42 133.627 55.8 131.627 55.8C130.327 55.8 129.027 55.63 127.727 55.29C127.367 55.19 127.077 54.99 126.857 54.69C126.637 54.37 126.527 54.02 126.527 53.64C126.527 53.34 126.647 53.1 126.887 52.92C127.147 52.74 127.417 52.7 127.697 52.8C128.937 53.2 130.147 53.4 131.327 53.4C133.527 53.4 134.627 52.75 134.627 51.45C134.627 50.83 134.407 50.33 133.967 49.95C133.527 49.55 132.747 49.2 131.627 48.9ZM152.084 47.7C152.084 43.9 150.704 42 147.944 42C145.184 42 143.804 43.9 143.804 47.7C143.804 51.5 145.184 53.4 147.944 53.4C150.704 53.4 152.084 51.5 152.084 47.7ZM153.344 53.7C152.044 55.1 150.244 55.8 147.944 55.8C145.644 55.8 143.844 55.1 142.544 53.7C141.244 52.28 140.594 50.28 140.594 47.7C140.594 45.12 141.244 43.13 142.544 41.73C143.844 40.31 145.644 39.6 147.944 39.6C150.244 39.6 152.044 40.31 153.344 41.73C154.644 43.13 155.294 45.12 155.294 47.7C155.294 50.28 154.644 52.28 153.344 53.7ZM161.278 55.05C160.978 55.35 160.608 55.5 160.168 55.5C159.728 55.5 159.348 55.35 159.028 55.05C158.728 54.75 158.578 54.38 158.578 53.94V41.37C158.578 40.97 158.718 40.63 158.998 40.35C159.298 40.05 159.648 39.9 160.048 39.9C160.448 39.9 160.788 40.05 161.068 40.35C161.368 40.63 161.528 40.97 161.548 41.37L161.578 41.82C161.578 41.84 161.588 41.85 161.608 41.85C161.628 41.85 161.648 41.84 161.668 41.82C163.088 40.34 164.708 39.6 166.528 39.6C168.348 39.6 169.678 40.12 170.518 41.16C171.358 42.18 171.778 43.86 171.778 46.2V53.97C171.778 54.39 171.628 54.75 171.328 55.05C171.028 55.35 170.668 55.5 170.248 55.5C169.828 55.5 169.458 55.35 169.138 55.05C168.838 54.75 168.688 54.39 168.688 53.97V46.65C168.688 44.85 168.468 43.63 168.028 42.99C167.588 42.33 166.788 42 165.628 42C164.688 42 163.798 42.42 162.958 43.26C162.138 44.08 161.728 44.96 161.728 45.9V53.94C161.728 54.38 161.578 54.75 161.278 55.05ZM191.861 36.63L188.711 46.86C188.691 46.92 188.701 46.98 188.741 47.04C188.781 47.08 188.831 47.1 188.891 47.1H194.891C194.951 47.1 195.001 47.08 195.041 47.04C195.081 46.98 195.091 46.92 195.071 46.86L191.921 36.63C191.921 36.61 191.911 36.6 191.891 36.6C191.871 36.6 191.861 36.61 191.861 36.63ZM184.361 55.5C183.941 55.5 183.601 55.33 183.341 54.99C183.101 54.65 183.051 54.28 183.191 53.88L189.611 35.22C189.771 34.74 190.061 34.35 190.481 34.05C190.901 33.75 191.361 33.6 191.861 33.6H192.041C192.561 33.6 193.021 33.75 193.421 34.05C193.841 34.35 194.131 34.74 194.291 35.22L200.711 53.88C200.851 54.28 200.791 54.65 200.531 54.99C200.291 55.33 199.961 55.5 199.541 55.5H199.421C198.921 55.5 198.461 55.35 198.041 55.05C197.641 54.75 197.361 54.36 197.201 53.88L196.001 49.92C195.981 49.76 195.871 49.68 195.671 49.68H188.111C187.931 49.68 187.821 49.76 187.781 49.92L186.581 53.88C186.441 54.36 186.161 54.75 185.741 55.05C185.341 55.35 184.881 55.5 184.361 55.5ZM209.676 55.8C207.276 55.8 205.426 55.12 204.126 53.76C202.826 52.38 202.176 50.36 202.176 47.7C202.176 45.08 202.806 43.08 204.066 41.7C205.326 40.3 207.096 39.6 209.376 39.6C210.436 39.6 211.446 39.67 212.406 39.81C212.786 39.87 213.096 40.05 213.336 40.35C213.596 40.65 213.726 41 213.726 41.4C213.726 41.74 213.586 42.01 213.306 42.21C213.046 42.41 212.746 42.47 212.406 42.39C211.426 42.17 210.496 42.06 209.616 42.06C208.236 42.06 207.196 42.51 206.496 43.41C205.816 44.31 205.476 45.74 205.476 47.7C205.476 49.7 205.836 51.14 206.556 52.02C207.296 52.9 208.416 53.34 209.916 53.34C210.856 53.34 211.756 53.21 212.616 52.95C212.936 52.85 213.226 52.9 213.486 53.1C213.746 53.28 213.876 53.53 213.876 53.85C213.876 54.25 213.746 54.61 213.486 54.93C213.226 55.25 212.906 55.45 212.526 55.53C211.566 55.71 210.616 55.8 209.676 55.8ZM225.401 47.64C223.761 47.64 222.521 47.92 221.681 48.48C220.861 49.02 220.451 49.76 220.451 50.7C220.451 51.44 220.671 52.05 221.111 52.53C221.551 53.01 222.081 53.25 222.701 53.25C224.021 53.25 225.071 52.84 225.851 52.02C226.651 51.18 227.051 50.04 227.051 48.6V47.88C227.051 47.72 226.961 47.64 226.781 47.64H225.401ZM221.951 55.8C220.591 55.8 219.471 55.36 218.591 54.48C217.731 53.6 217.301 52.44 217.301 51C217.301 49.24 217.971 47.88 219.311 46.92C220.651 45.94 222.681 45.45 225.401 45.45H226.781C226.961 45.45 227.051 45.36 227.051 45.18V44.85C227.051 43.79 226.801 43.05 226.301 42.63C225.801 42.21 224.901 42 223.601 42C222.441 42 221.061 42.24 219.461 42.72C219.161 42.82 218.871 42.78 218.591 42.6C218.331 42.4 218.201 42.14 218.201 41.82C218.201 41.42 218.321 41.06 218.561 40.74C218.801 40.42 219.111 40.22 219.491 40.14C220.931 39.78 222.301 39.6 223.601 39.6C226.121 39.6 227.851 40.05 228.791 40.95C229.731 41.85 230.201 43.5 230.201 45.9V54.03C230.201 54.43 230.051 54.78 229.751 55.08C229.471 55.36 229.131 55.5 228.731 55.5C228.331 55.5 227.981 55.36 227.681 55.08C227.401 54.78 227.251 54.43 227.231 54.03L227.201 53.28C227.201 53.26 227.191 53.25 227.171 53.25C227.131 53.25 227.111 53.26 227.111 53.28C225.951 54.96 224.231 55.8 221.951 55.8ZM240.519 42C237.919 42 236.619 43.9 236.619 47.7C236.619 49.62 236.959 51.05 237.639 51.99C238.339 52.93 239.299 53.4 240.519 53.4C241.579 53.4 242.489 53.05 243.249 52.35C244.029 51.65 244.419 50.85 244.419 49.95V45.45C244.419 44.55 244.029 43.75 243.249 43.05C242.489 42.35 241.579 42 240.519 42ZM239.769 55.8C237.949 55.8 236.439 55.07 235.239 53.61C234.059 52.15 233.469 50.18 233.469 47.7C233.469 45.14 234.039 43.15 235.179 41.73C236.339 40.31 237.869 39.6 239.769 39.6C241.549 39.6 243.069 40.24 244.329 41.52C244.349 41.54 244.369 41.55 244.389 41.55C244.409 41.55 244.419 41.54 244.419 41.52V34.56C244.419 34.12 244.569 33.75 244.869 33.45C245.189 33.15 245.569 33 246.009 33C246.449 33 246.819 33.15 247.119 33.45C247.419 33.75 247.569 34.12 247.569 34.56V54.03C247.569 54.43 247.419 54.78 247.119 55.08C246.839 55.36 246.499 55.5 246.099 55.5C245.699 55.5 245.349 55.36 245.049 55.08C244.769 54.78 244.619 54.43 244.599 54.03L244.569 53.58C244.569 53.56 244.559 53.55 244.539 53.55C244.519 53.55 244.499 53.56 244.479 53.58C243.739 54.4 243.009 54.98 242.289 55.32C241.569 55.64 240.729 55.8 239.769 55.8ZM258.035 41.94C255.755 41.94 254.475 43.29 254.195 45.99C254.155 46.17 254.235 46.26 254.435 46.26H261.155C261.315 46.26 261.395 46.17 261.395 45.99C261.275 43.29 260.155 41.94 258.035 41.94ZM258.785 55.8C256.285 55.8 254.355 55.12 252.995 53.76C251.655 52.4 250.985 50.38 250.985 47.7C250.985 45.02 251.585 43 252.785 41.64C254.005 40.28 255.755 39.6 258.035 39.6C262.195 39.6 264.345 42.04 264.485 46.92C264.505 47.4 264.335 47.8 263.975 48.12C263.615 48.44 263.195 48.6 262.715 48.6H254.405C254.245 48.6 254.165 48.68 254.165 48.84C254.405 51.92 256.045 53.46 259.085 53.46C260.145 53.46 261.185 53.29 262.205 52.95C262.505 52.85 262.785 52.89 263.045 53.07C263.305 53.25 263.435 53.5 263.435 53.82C263.435 54.2 263.315 54.54 263.075 54.84C262.835 55.14 262.525 55.34 262.145 55.44C261.045 55.68 259.925 55.8 258.785 55.8ZM270.584 55.05C270.284 55.35 269.914 55.5 269.474 55.5C269.034 55.5 268.664 55.35 268.364 55.05C268.064 54.75 267.914 54.38 267.914 53.94V41.4C267.914 40.98 268.054 40.63 268.334 40.35C268.634 40.05 268.994 39.9 269.414 39.9C269.834 39.9 270.194 40.05 270.494 40.35C270.794 40.63 270.954 40.98 270.974 41.4V41.67C270.974 41.69 270.984 41.7 271.004 41.7C271.044 41.7 271.064 41.69 271.064 41.67C272.244 40.29 273.544 39.6 274.964 39.6C275.844 39.6 276.554 39.78 277.094 40.14C277.634 40.5 278.104 41.11 278.504 41.97C278.504 41.99 278.524 42 278.564 42C278.584 42 278.604 41.99 278.624 41.97C279.804 40.39 281.204 39.6 282.824 39.6C284.464 39.6 285.634 40.05 286.334 40.95C287.054 41.83 287.414 43.38 287.414 45.6V53.94C287.414 54.36 287.254 54.73 286.934 55.05C286.634 55.35 286.274 55.5 285.854 55.5C285.434 55.5 285.074 55.35 284.774 55.05C284.474 54.73 284.324 54.36 284.324 53.94V46.5C284.324 44.68 284.154 43.48 283.814 42.9C283.474 42.3 282.844 42 281.924 42C281.344 42 280.744 42.3 280.124 42.9C279.524 43.5 279.224 44.1 279.224 44.7V53.94C279.224 54.36 279.074 54.73 278.774 55.05C278.474 55.35 278.114 55.5 277.694 55.5C277.274 55.5 276.904 55.35 276.584 55.05C276.284 54.73 276.134 54.36 276.134 53.94V46.5C276.134 44.68 275.964 43.48 275.624 42.9C275.284 42.3 274.654 42 273.734 42C273.154 42 272.564 42.3 271.964 42.9C271.364 43.5 271.064 44.1 271.064 44.7V53.94C271.064 54.38 270.904 54.75 270.584 55.05ZM294.99 55.26L290.07 41.46C289.93 41.08 289.98 40.73 290.22 40.41C290.46 40.07 290.78 39.9 291.18 39.9C291.68 39.9 292.13 40.05 292.53 40.35C292.93 40.63 293.2 41 293.34 41.46L296.7 51.87C296.7 51.89 296.71 51.9 296.73 51.9C296.75 51.9 296.76 51.89 296.76 51.87L300.51 41.4C300.69 40.94 300.97 40.58 301.35 40.32C301.73 40.04 302.16 39.9 302.64 39.9C303.02 39.9 303.31 40.06 303.51 40.38C303.73 40.68 303.77 41.01 303.63 41.37L295.98 60.63C295.8 61.07 295.51 61.42 295.11 61.68C294.71 61.96 294.27 62.1 293.79 62.1C293.43 62.1 293.14 61.94 292.92 61.62C292.72 61.3 292.69 60.97 292.83 60.63L294.99 55.74C295.03 55.66 295.05 55.58 295.05 55.5C295.05 55.42 295.03 55.34 294.99 55.26Z" fill="#2E186A"/>
<path d="M25.9999 45.1608C26.6816 45.5907 27.2512 45.8584 28.0726 46.1183C28.9769 46.4091 29.7475 46.5309 30.7372 46.5309C32.4359 46.5318 34.025 46.0767 35.4865 45.169C35.7141 45.0266 35.8614 44.9247 36.0748 44.7378L35.4445 43.263C33.6246 44.4665 31.3481 44.9338 29.1647 44.5273C27.9952 44.3137 26.9017 43.8544 25.9521 43.2021L25.335 44.6698C25.576 44.881 25.7404 44.9973 25.9999 45.1608Z" fill="url(#paint0_linear_13_1289)"/>
<ellipse cx="30.7577" cy="53.2538" rx="6.0092" ry="5.77411" fill="url(#paint1_linear_13_1289)"/>
<path fill-rule="evenodd" clip-rule="evenodd" d="M29.5104 21.0409C31.1299 20.4122 32.9887 21.2008 33.6621 22.8023L47.0996 54.7601C47.773 56.3616 47.006 58.1696 45.3864 58.7983C43.7669 59.4271 41.9081 58.6385 41.2347 57.037L36.0664 44.7453C36.2349 44.5983 36.444 44.3984 36.7676 44.0821C37.485 43.388 37.6284 43.2284 37.879 42.8541C39.1283 40.9719 39.5599 38.8264 39.1098 36.722C38.9744 36.0897 38.9672 36.0828 38.9692 36.643C38.979 38.4239 38.4414 40.0683 37.3917 41.438C37.1052 41.8194 36.2265 42.6904 35.8568 42.9718C35.7219 43.0735 35.584 43.1708 35.4434 43.2638L27.7972 25.0791C27.1238 23.4776 27.8908 21.6697 29.5104 21.0409Z" fill="url(#paint2_linear_13_1289)"/>
<path fill-rule="evenodd" clip-rule="evenodd" d="M31.8721 21.0307C30.2526 20.402 28.3938 21.1906 27.7204 22.7921L14.2829 54.7499C13.6095 56.3514 14.3765 58.1594 15.9961 58.7881C17.6156 59.4169 19.4744 58.6283 20.1478 57.0268L25.3413 44.6753C25.1858 44.5394 24.9987 44.3641 24.733 44.1106C24.0685 43.4697 23.9168 43.3043 23.66 42.9283C22.8315 41.7036 22.3773 40.4637 22.2393 39.0844C22.1644 38.2686 22.2155 37.435 22.3925 36.6114C22.4386 36.4072 22.4812 36.2272 22.4883 36.2203C22.4955 36.2134 22.5074 36.5349 22.516 36.936C22.5381 38.0875 22.7683 39.0722 23.2613 40.0871C23.8694 41.3474 24.8088 42.4185 25.9588 43.2068L33.5853 25.0689C34.2587 23.4674 33.4917 21.6595 31.8721 21.0307Z" fill="url(#paint3_linear_13_1289)"/>
<path d="M61 42C61 58.8447 47.3447 72.5 30.5 72.5C13.6553 72.5 0 58.8447 0 42C0 25.1553 13.6553 11.5 30.5 11.5C47.3447 11.5 61 25.1553 61 42ZM6.11453 42C6.11453 55.4677 17.0323 66.3855 30.5 66.3855C43.9677 66.3855 54.8855 55.4677 54.8855 42C54.8855 28.5323 43.9677 17.6145 30.5 17.6145C17.0323 17.6145 6.11453 28.5323 6.11453 42Z" fill="url(#paint4_linear_13_1289)"/>
<defs>
<linearGradient id="paint0_linear_13_1289" x1="34.2152" y1="44.8238" x2="27.0856" y2="42.9397" gradientUnits="userSpaceOnUse">
<stop stop-color="#FFB45B"/>
<stop offset="1" stop-color="#FF8A00"/>
</linearGradient>
<linearGradient id="paint1_linear_13_1289" x1="33.7943" y1="49.226" x2="28.7217" y2="58.3311" gradientUnits="userSpaceOnUse">
<stop stop-color="#FFB45B"/>
<stop offset="1" stop-color="#FF8A00"/>
</linearGradient>
<linearGradient id="paint2_linear_13_1289" x1="42.4487" y1="26.5997" x2="22.8443" y2="44.1218" gradientUnits="userSpaceOnUse">
<stop stop-color="#FFB45B"/>
<stop offset="1" stop-color="#FF8A00"/>
</linearGradient>
<linearGradient id="paint3_linear_13_1289" x1="28.9344" y1="26.5895" x2="9.32999" y2="44.1116" gradientUnits="userSpaceOnUse">
<stop stop-color="#FFB45B"/>
<stop offset="1" stop-color="#FF8A00"/>
</linearGradient>
<linearGradient id="paint4_linear_13_1289" x1="45.9122" y1="20.7244" x2="18.5648" y2="67.891" gradientUnits="userSpaceOnUse">
<stop stop-color="#FFB45B"/>
<stop offset="1" stop-color="#FF8A00"/>
</linearGradient>
</defs>
</svg>
